<svg xmlns="http://www.w3.org/2000/svg" xmlns:xlink="http://www.w3.org/1999/xlink"><defs><symbol viewBox="0 0 100 100" id="calendar"><path d="M85.1,18.5H77v-4.5c0-1.9-1.6-3.5-3.5-3.5h-5c-1.9,0-3.5,1.6-3.5,3.5v4.5H35.3v-4.5c0-1.9-1.6-3.5-3.5-3.5h-5  c-1.9,0-3.5,1.6-3.5,3.5v4.5h-8.5c-3.4,0-6.2,2.8-6.2,6.2v55.9c0,3.4,2.8,6.2,6.2,6.2h70.3c3.4,0,6.2-2.8,6.2-6.2V24.7  C91.3,21.3,88.5,18.5,85.1,18.5z M68.7,14.3h4.6v6.1v4.9h-4.6v-4.9V14.3z M27,14.3h4.6v6.1v4.9H27v-4.9V14.3z M14.9,22.2h8.5v3.3  c0,1.9,1.6,3.5,3.5,3.5h5c1.9,0,3.5-1.6,3.5-3.5v-3.3H65v3.3c0,1.9,1.6,3.5,3.5,3.5h5c1.9,0,3.5-1.6,3.5-3.5v-3.3h8.2  c1.4,0,2.5,1.1,2.5,2.5v10H12.4v-10C12.4,23.3,13.5,22.2,14.9,22.2z M85.1,83.1H14.9c-1.4,0-2.5-1.1-2.5-2.5V38.4h75.2v42.2  C87.6,82,86.5,83.1,85.1,83.1z M28.7,48.5c0,1-0.8,1.8-1.8,1.8h-6c-1,0-1.8-0.8-1.8-1.8c0-1,0.8-1.8,1.8-1.8h6  C27.9,46.6,28.7,47.5,28.7,48.5z M46,48.5c0,1-0.8,1.8-1.8,1.8h-6c-1,0-1.8-0.8-1.8-1.8c0-1,0.8-1.8,1.8-1.8h6  C45.1,46.6,46,47.5,46,48.5z M63.2,48.5c0,1-0.8,1.8-1.8,1.8h-6c-1,0-1.8-0.8-1.8-1.8c0-1,0.8-1.8,1.8-1.8h6  C62.4,46.6,63.2,47.5,63.2,48.5z M80.5,48.5c0,1-0.8,1.8-1.8,1.8h-6c-1,0-1.8-0.8-1.8-1.8c0-1,0.8-1.8,1.8-1.8h6  C79.7,46.6,80.5,47.5,80.5,48.5z M28.7,60.8c0,1-0.8,1.8-1.8,1.8h-6c-1,0-1.8-0.8-1.8-1.8c0-1,0.8-1.8,1.8-1.8h6  C27.9,59,28.7,59.8,28.7,60.8z M46,60.8c0,1-0.8,1.8-1.8,1.8h-6c-1,0-1.8-0.8-1.8-1.8c0-1,0.8-1.8,1.8-1.8h6  C45.1,59,46,59.8,46,60.8z M63.2,60.8c0,1-0.8,1.8-1.8,1.8h-6c-1,0-1.8-0.8-1.8-1.8c0-1,0.8-1.8,1.8-1.8h6  C62.4,59,63.2,59.8,63.2,60.8z M80.5,60.8c0,1-0.8,1.8-1.8,1.8h-6c-1,0-1.8-0.8-1.8-1.8c0-1,0.8-1.8,1.8-1.8h6  C79.7,59,80.5,59.8,80.5,60.8z M28.7,73.2c0,1-0.8,1.8-1.8,1.8h-6c-1,0-1.8-0.8-1.8-1.8c0-1,0.8-1.8,1.8-1.8h6  C27.9,71.3,28.7,72.1,28.7,73.2z M46,73.2c0,1-0.8,1.8-1.8,1.8h-6c-1,0-1.8-0.8-1.8-1.8c0-1,0.8-1.8,1.8-1.8h6  C45.1,71.3,46,72.1,46,73.2z M63.2,73.2c0,1-0.8,1.8-1.8,1.8h-6c-1,0-1.8-0.8-1.8-1.8c0-1,0.8-1.8,1.8-1.8h6  C62.4,71.3,63.2,72.1,63.2,73.2z M80.5,73.2c0,1-0.8,1.8-1.8,1.8h-6c-1,0-1.8-0.8-1.8-1.8c0-1,0.8-1.8,1.8-1.8h6  C79.7,71.3,80.5,72.1,80.5,73.2z" fill="#626262" /></symbol><symbol viewBox="0 0 1792 1792" id="email"><path d="M1792 710v794q0 66-47 113t-113 47h-1472q-66 0-113-47t-47-113v-794q44 49 101 87 362 246 497 345 57 42 92.5 65.5t94.5 48 110 24.5h2q51 0 110-24.5t94.5-48 92.5-65.5q170-123 498-345 57-39 100-87zm0-294q0 79-49 151t-122 123q-376 261-468 325-10 7-42.5 30.5t-54 38-52 32.5-57.5 27-50 9h-2q-23 0-50-9t-57.5-27-52-32.5-54-38-42.5-30.5q-91-64-262-182.5t-205-142.5q-62-42-117-115.5t-55-136.5q0-78 41.5-130t118.5-52h1472q65 0 112.5 47t47.5 113z" /></symbol><symbol preserveAspectRatio="xMidYMid meet" viewBox="0 0 896 1664" id="facebook"><path d="M895 12v264H738q-86 0-116 36t-30 108v189h293l-39 296H592v759H286V905H31V609h255V391q0-186 104-288.5T667 0q147 0 228 12z" fill="currentColor" /></symbol><symbol viewBox="0 0 20 20" id="home">
<path fill="currentcolor" d="M18.672,11H17v6c0,0.445-0.194,1-1,1h-4v-6H8v6H4c-0.806,0-1-0.555-1-1v-6H1.328
	c-0.598,0-0.47-0.324-0.06-0.748L9.292,2.22C9.487,2.018,9.743,1.918,10,1.908c0.257,0.01,0.513,0.109,0.708,0.312l8.023,8.031
	C19.142,10.676,19.27,11,18.672,11z" />
</symbol><symbol viewBox="0 0 448 512" id="instagram"><path d="M224.1 141c-63.6 0-114.9 51.3-114.9 114.9s51.3 114.9 114.9 114.9S339 319.5 339 255.9 287.7 141 224.1 141zm0 189.6c-41.1 0-74.7-33.5-74.7-74.7s33.5-74.7 74.7-74.7 74.7 33.5 74.7 74.7-33.6 74.7-74.7 74.7zm146.4-194.3c0 14.9-12 26.8-26.8 26.8-14.9 0-26.8-12-26.8-26.8s12-26.8 26.8-26.8 26.8 12 26.8 26.8zm76.1 27.2c-1.7-35.9-9.9-67.7-36.2-93.9-26.2-26.2-58-34.4-93.9-36.2-37-2.1-147.9-2.1-184.9 0-35.8 1.7-67.6 9.9-93.9 36.1s-34.4 58-36.2 93.9c-2.1 37-2.1 147.9 0 184.9 1.7 35.9 9.9 67.7 36.2 93.9s58 34.4 93.9 36.2c37 2.1 147.9 2.1 184.9 0 35.9-1.7 67.7-9.9 93.9-36.2 26.2-26.2 34.4-58 36.2-93.9 2.1-37 2.1-147.8 0-184.8zM398.8 388c-7.8 19.6-22.9 34.7-42.6 42.6-29.5 11.7-99.5 9-132.1 9s-102.7 2.6-132.1-9c-19.6-7.8-34.7-22.9-42.6-42.6-11.7-29.5-9-99.5-9-132.1s-2.6-102.7 9-132.1c7.8-19.6 22.9-34.7 42.6-42.6 29.5-11.7 99.5-9 132.1-9s102.7-2.6 132.1 9c19.6 7.8 34.7 22.9 42.6 42.6 11.7 29.5 9 99.5 9 132.1s2.7 102.7-9 132.1z" /></symbol><symbol aria-hidden="true" preserveAspectRatio="xMidYMid meet" viewBox="0 0 1536 1504" id="linkedin"><path d="M349 497v991H19V497h330zm21-306q1 73-50.5 122T184 362h-2q-82 0-132-49T0 191q0-74 51.5-122.5T186 20t133 48.5T370 191zm1166 729v568h-329V958q0-105-40.5-164.5T1040 734q-63 0-105.5 34.5T871 854q-11 30-11 81v553H531q2-399 2-647t-1-296l-1-48h329v144h-2q20-32 41-56t56.5-52t87-43.5T1157 474q171 0 275 113.5T1536 920z" fill="#000" /></symbol><symbol viewBox="0 0 32 32" id="menu"><path d="M2 6h28v6H2zm0 8h28v6H2zm0 8h28v6H2z" fill="#626262" /></symbol><symbol viewBox="0 0 1792 1792" id="search"><path d="M1216 832q0-185-131.5-316.5t-316.5-131.5-316.5 131.5-131.5 316.5 131.5 316.5 316.5 131.5 316.5-131.5 131.5-316.5zm512 832q0 52-38 90t-90 38q-54 0-90-38l-343-342q-179 124-399 124-143 0-273.5-55.5t-225-150-150-225-55.5-273.5 55.5-273.5 150-225 225-150 273.5-55.5 273.5 55.5 225 150 150 225 55.5 273.5q0 220-124 399l343 343q37 37 37 90z" fill="#ffffff" /></symbol><symbol viewBox="0 0 26 28" id="twitter"><path d="M25.312 6.375a10.85 10.85 0 01-2.531 2.609c.016.219.016.438.016.656 0 6.672-5.078 14.359-14.359 14.359-2.859 0-5.516-.828-7.75-2.266.406.047.797.063 1.219.063 2.359 0 4.531-.797 6.266-2.156a5.056 5.056 0 01-4.719-3.5c.313.047.625.078.953.078.453 0 .906-.063 1.328-.172a5.048 5.048 0 01-4.047-4.953v-.063a5.093 5.093 0 002.281.641 5.044 5.044 0 01-2.25-4.203c0-.938.25-1.797.688-2.547a14.344 14.344 0 0010.406 5.281 5.708 5.708 0 01-.125-1.156 5.045 5.045 0 015.047-5.047 5.03 5.03 0 013.687 1.594 9.943 9.943 0 003.203-1.219 5.032 5.032 0 01-2.219 2.781c1.016-.109 2-.391 2.906-.781z" fill="#000" /></symbol><symbol aria-hidden="true" preserveAspectRatio="xMidYMid meet" viewBox="0 0 1536 1792" id="youtube"><path d="M971 1244v211q0 67-39 67q-23 0-45-22v-301q22-22 45-22q39 0 39 67zm338 1v46h-90v-46q0-68 45-68t45 68zm-966-218h107v-94H138v94h105v569h100v-569zm288 569h89v-494h-89v378q-30 42-57 42q-18 0-21-21q-1-3-1-35v-364h-89v391q0 49 8 73q12 37 58 37q48 0 102-61v54zm429-148v-197q0-73-9-99q-17-56-71-56q-50 0-93 54V933h-89v663h89v-48q45 55 93 55q54 0 71-55q9-27 9-100zm338-10v-13h-91q0 51-2 61q-7 36-40 36q-46 0-46-69v-87h179v-103q0-79-27-116q-39-51-106-51q-68 0-107 51q-28 37-28 116v173q0 79 29 116q39 51 108 51q72 0 108-53q18-27 21-54q2-9 2-58zM790 525V315q0-69-43-69t-43 69v210q0 70 43 70t43-70zm719 751q0 234-26 350q-14 59-58 99t-102 46q-184 21-555 21t-555-21q-58-6-102.5-46T53 1626q-26-112-26-350q0-234 26-350q14-59 58-99t103-47q183-20 554-20t555 20q58 7 102.5 47t57.5 99q26 112 26 350zM511 0h102L492 399v271H392V399q-14-74-61-212Q294 84 266 0h106l71 263zm370 333v175q0 81-28 118q-38 51-106 51q-67 0-105-51q-28-38-28-118V333q0-80 28-117q38-51 105-51q68 0 106 51q28 37 28 117zm335-162v499h-91v-55q-53 62-103 62q-46 0-59-37q-8-24-8-75V171h91v367q0 33 1 35q3 22 21 22q27 0 57-43V171h91z" fill="#626262" /></symbol></defs></svg>